<?xml version="1.0" encoding="utf-8"?>
<!-- Generator: Adobe Illustrator 15.1.0, SVG Export Plug-In . SVG Version: 6.00 Build 0)  -->
<!DOCTYPE svg PUBLIC "-//W3C//DTD SVG 1.1//EN" "http://www.w3.org/Graphics/SVG/1.1/DTD/svg11.dtd">
<svg version="1.1" id="Ebene_1" xmlns="http://www.w3.org/2000/svg" xmlns:xlink="http://www.w3.org/1999/xlink" x="0px" y="0px"
	 width="705.863px" height="674.234px" viewBox="0 0 705.863 674.234" enable-background="new 0 0 705.863 674.234"
	 xml:space="preserve">
<path fill="none" stroke="#000000" stroke-miterlimit="10" d="M296.463,297.764c0,41.931,9.024,81.755,25.236,117.638l-25.18-3.77
	c-14.441-38.156-23.685-78.869-26.864-121.271"/>
<path fill="none" stroke="#000000" stroke-miterlimit="10" d="M351.527,466.44c23.479-32.078,40.434-69.23,48.908-109.507
	l19.474,19.256c-5.896,20.846-13.305,41.057-22.099,60.507c-8.188,18.108-17.576,35.559-28.064,52.247"/>
<path fill="none" stroke="#000000" stroke-miterlimit="10" d="M298.06,267.362c5.429-51.385,24.465-98.711,53.438-138.31v-0.003
	c34.625,47.289,55.067,105.614,55.067,168.715c0,10.539-0.57,20.944-1.682,31.188l22.086,18.571
	c6.128-29.115,9.351-59.303,9.351-90.241c0-96.225-31.175-185.168-83.975-257.281l-0.001,0.005
	c-52.771,72.124-83.926,161.062-83.926,257.275"/>
<path fill="none" stroke="#000000" stroke-miterlimit="10" d="M456.837,426.418c24.184,41.817,38.021,90.365,38.021,142.145
	l-0.434,1.402c-68.638-22.185-125.928-69.613-160.924-131.339l-26.599-1.952c2.864,6.34,5.876,12.599,9.03,18.771
	c52.229,102.228,143.609,181.127,254.368,216.928l0.661-2.139c0-94.517-30.238-181.971-81.569-253.215"/>
<path fill="none" stroke="#000000" stroke-miterlimit="10" d="M441.368,402.514c-23.503-32.621-53.752-60.062-88.701-80.278
	l25.188-12.872c34.319,22.921,65.185,50.606,91.651,82.112"/>
<path fill="none" stroke="#000000" stroke-miterlimit="10" d="M236.77,392.884c-46.67-20.561-86.782-53.274-116.325-94.132
	l0.005-0.003c28.297-9.439,58.573-14.551,90.044-14.551c42.365,0,82.565,9.265,118.688,25.878l24.945-15.478
	c-63.779-36.891-137.828-58.004-216.806-58.004c-47.991,0-94.161,7.795-137.312,22.189L0,258.789
	c53.295,73.706,129.143,130.031,217.422,158.857"/>
<path fill="none" stroke="#000000" stroke-miterlimit="10" d="M435.058,290.592c19.491-4.18,39.717-6.38,60.457-6.38
	c30.626,0,60.132,4.797,87.807,13.682l0.002,0.001c-41.196,57.419-103.207,98.899-174.994,113.403l-10.52,25.398
	c126.837-13.149,237.476-80.841,308.057-179.215l-0.004-0.002c-42.202-13.548-87.196-20.865-133.899-20.865
	c-47.264,0-92.776,7.492-135.416,21.354"/>
<path fill="none" stroke="#000000" stroke-miterlimit="10" d="M406.714,298.215c-38.905,12.648-74.163,33.382-103.79,60.217
	l-4.37-25.917c32.14-25.749,67.992-47.057,106.625-62.995"/>
<path fill="none" stroke="#000000" stroke-miterlimit="10" d="M334.256,487.812c-33.55,37.677-76.917,66.416-126.087,82.204
	l0.372,1.168c0-75.232,28.95-143.706,76.319-194.883l-6.605-26.489c-88.39,80.07-143.911,195.762-143.912,324.421l-0.566-1.781
	c88.567-28.438,164.79-84.435,218.572-157.892"/>
<path fill="none" stroke="#000000" stroke-miterlimit="10" d="M247.771,426.262l2.055,0.583
	c32.909,7.968,67.28,12.188,102.638,12.188c5.691,0,11.358-0.109,16.999-0.326l11.852-23.291
	c-9.774,1.014-19.695,1.533-29.737,1.533c-30.634,0-60.139-4.832-87.794-13.777"/>
</svg>
